<?xml version="1.0" encoding="UTF-8"?><svg id="Layer_2" xmlns="http://www.w3.org/2000/svg" viewBox="0 0 724.14 164.5"><defs><style>.cls-1{fill:#fff;}</style></defs><g id="Portalis_Ai_Lock-Up_White"><path class="cls-1" d="m724.14,68.95c0-.14,0-.28,0-.41v-1.07c0-9.5-1.54-18.41-4.57-26.48-3.2-8.49-7.88-15.9-13.92-22.03-6.05-6.13-13.34-10.9-21.68-14.19-8.05-3.17-16.95-4.78-26.47-4.78s-18.44,1.62-26.46,4.81c-8.26,3.28-15.5,8.05-21.52,14.15-6.05,6.13-10.73,13.54-13.92,22.03-3.03,8.06-4.57,16.97-4.57,26.48v22h0v46.59s22.01,0,22.01,0v-66.03s-.01-1.08-.01-1.08c0-.5.01-.99.03-1.48h-.03c0-6.88,1.05-13.13,3.16-18.74,2.11-5.61,5.11-10.38,8.99-14.32,3.89-3.94,8.55-7,13.99-9.16,5.44-2.17,11.55-3.25,18.32-3.25s12.91,1.08,18.4,3.25c5.5,2.17,10.19,5.22,14.07,9.16,3.89,3.94,6.88,8.72,8.99,14.32,2.11,5.61,3.16,11.85,3.16,18.74h-.03c.02.49.03.98.03,1.48v.94s0,66.17,0,66.17h22s0-66.17,0-66.17v-.94Z"/><path class="cls-1" d="m666.83,94.21c-3.53-.83-6.34-1.37-9.35-1.32-2.8.04-7.25.8-9.34,1.44-5.78,1.76-7.75,6.12-7.76,12.07-.01,6.67.54,29.66.54,29.66h33.22s.65-23.17.64-29.66c-.01-5.95-2.07-10.81-7.95-12.19Z"/><polygon class="cls-1" points="657.55 79.98 657.55 79.98 657.55 79.98 657.55 79.98"/><path class="cls-1" d="m672.07,64.19c0-7.89-7.41-14.28-15.44-14.28s-13.62,6.39-13.62,14.28c0,9.18,6.51,15.79,14.53,15.79,8.02,0,14.53-6,14.53-15.79Z"/><path class="cls-1" d="m80.44,79.74c-1.47-5.29-3.72-9.92-6.76-13.91-3.04-3.98-6.86-7.17-11.47-9.58-4.61-2.41-10.11-3.61-16.5-3.61-5.03,0-12.39.76-19,6.4-2.98,2.55-4.79,5.6-5.52,3.13,0-.03-.04-.05-.06-.07-.1-1.11-.33-2.14-.69-3.1-.5-1.33-1.22-2.47-2.14-3.41-.92-.94-2.04-1.66-3.35-2.18-1.31-.51-2.77-.77-4.38-.77s-3.07.26-4.36.77c-1.3.51-2.4,1.24-3.33,2.18-.92.94-1.64,2.07-2.14,3.41-.5,1.33-.75,2.82-.75,4.46v101.05h22.31v-27.96c0-8.17,1.93-8.39,3.62-6.6,1.88,1.98,4.87,3.92,7.14,5.11,4.18,2.17,8.87,3.07,13.91,3.07,5.97,0,11.18-1.16,15.63-3.46,4.45-2.3,8.17-5.4,11.16-9.27,2.98-3.87,5.21-8.33,6.68-13.36,1.47-5.03,2.2-10.27,2.2-15.71,0-5.76-.74-11.28-2.2-16.58h0Zm-21.06,25.53c-.63,3.14-1.7,5.89-3.22,8.25-1.52,2.36-3.51,4.27-5.97,5.73-2.46,1.47-5.53,2.2-9.19,2.2s-6.6-.73-9.11-2.2c-2.51-1.47-4.53-3.38-6.05-5.73-1.52-2.36-2.62-5.11-3.3-8.25-.68-3.14-1.02-6.34-1.02-9.58s.32-6.6.94-9.74c.63-3.14,1.7-5.92,3.22-8.33,1.52-2.41,3.51-4.37,5.97-5.89,2.46-1.52,5.52-2.28,9.19-2.28s6.57.76,9.04,2.28c2.46,1.52,4.48,3.51,6.05,5.97,1.57,2.46,2.7,5.26,3.38,8.41.68,3.14,1.02,6.34,1.02,9.58s-.32,6.44-.94,9.58Z"/><path class="cls-1" d="m165.59,64.34c-3.66-3.72-8.09-6.6-13.27-8.64-5.18-2.04-10.97-3.07-17.36-3.07s-12.15,1.02-17.28,3.07c-5.13,2.04-9.53,4.92-13.2,8.64-3.67,3.72-6.49,8.22-8.48,13.51-1.99,5.29-2.99,11.18-2.99,17.67s.99,12.36,2.99,17.6c1.99,5.24,4.81,9.72,8.48,13.43,3.67,3.72,8.06,6.57,13.2,8.56,5.13,1.99,10.9,2.98,17.28,2.98s12.17-.99,17.36-2.98c5.18-1.99,9.6-4.84,13.27-8.56,3.66-3.72,6.49-8.2,8.48-13.43,1.99-5.24,2.99-11.1,2.99-17.6s-1-12.38-2.99-17.67c-1.99-5.29-4.82-9.79-8.48-13.51Zm-11.78,40.69c-.63,3.09-1.7,5.87-3.22,8.33-1.52,2.46-3.56,4.42-6.13,5.89-2.57,1.47-5.73,2.2-9.51,2.2s-6.91-.74-9.43-2.2c-2.51-1.46-4.53-3.43-6.05-5.89-1.52-2.46-2.59-5.24-3.22-8.33-.63-3.09-.94-6.26-.94-9.51s.32-6.44.94-9.58c.63-3.15,1.7-5.92,3.22-8.33,1.52-2.41,3.54-4.37,6.05-5.89,2.51-1.52,5.65-2.28,9.43-2.28s6.94.76,9.51,2.28c2.57,1.52,4.61,3.48,6.13,5.89,1.52,2.41,2.59,5.19,3.22,8.33.63,3.14.94,6.33.94,9.58s-.32,6.42-.94,9.51Z"/><path class="cls-1" d="m368.33,56.88c-3.46-1.67-7.28-2.8-11.47-3.38-4.19-.58-8.33-.86-12.41-.86-4.51,0-8.98.45-13.44,1.33-4.46.89-8.46,2.39-12.02,4.48-3.57,2.1-6.5,4.87-8.8,8.33-1.71,2.56-2.87,5.6-3.48,9.13-.35,2.03,1.18,3.9,3.25,3.9h0s15.79-.01,15.79-.01c1.56,0,2.89-1.1,3.23-2.62.68-3.05,2.01-5.32,3.99-6.8,2.51-1.89,5.97-2.83,10.37-2.83,1.99,0,3.85.13,5.58.39,1.72.26,3.24.78,4.55,1.57,1.31.79,2.35,1.89,3.14,3.3.79,1.41,1.18,3.32,1.18,5.73.1,2.31-.57,4.06-2.04,5.26-1.47,1.21-3.46,2.12-5.97,2.75-2.51.63-5.39,1.1-8.64,1.41-3.25.32-6.55.74-9.9,1.26-3.36.53-6.68,1.24-9.98,2.12-3.3.89-6.23,2.23-8.8,4.01-2.57,1.78-4.66,4.16-6.29,7.15-1.62,2.98-2.43,6.79-2.43,11.39,0,4.19.71,7.8,2.12,10.84,1.41,3.04,3.38,5.55,5.89,7.54,2.51,1.99,5.45,3.46,8.8,4.4,3.35.94,6.96,1.41,10.84,1.41,5.03,0,9.95-.73,14.77-2.2,4.81-1.47,9.01-4.03,12.57-7.7.1,1.36,0,5.84,0,7.5h21.37v-59.97c0-4.92-1.1-8.87-3.3-11.86-2.2-2.98-5.03-5.31-8.48-6.99Zm-10.92,52.8c-.26,2.1-.97,4.16-2.12,6.21-1.16,2.04-2.93,3.8-5.34,5.26-2.41,1.47-5.81,2.2-10.21,2.2-1.78,0-3.51-.16-5.18-.47-1.68-.32-3.15-.86-4.4-1.65-1.25-.79-2.25-1.86-2.98-3.22-.73-1.36-1.1-2.93-1.1-5.03s.36-3.82,1.1-5.19c.73-1.36,1.7-2.48,2.9-3.38,1.2-.89,2.62-1.6,4.24-2.12,1.63-.52,3.27-.94,4.95-1.26,1.78-.32,3.56-.58,5.34-.79,1.78-.21,3.48-.47,5.11-.79,1.2-.24,2.35-.51,3.44-.83.53-.16,1.03-.37,1.53-.6h0c.93-.42,3.12-.66,3.12,6.62,0,1.26-.13,2.93-.39,5.03Z"/><path class="cls-1" d="m540.77,94.05c-2.41-1.73-5.16-3.12-8.25-4.16-3.09-1.04-6.26-1.93-9.51-2.67-3.15-.73-6.23-1.41-9.27-2.04-3.04-.63-5.73-1.33-8.09-2.12s-4.27-1.81-5.73-3.07c-1.47-1.26-2.2-2.88-2.2-4.87,0-1.67.42-3.01,1.26-4.01.84-.99,1.86-1.75,3.06-2.28,1.2-.52,2.54-.87,4.01-1.02,1.47-.16,2.82-.24,4.08-.24,3.98,0,7.44.76,10.37,2.28,2.3,1.19,3.79,3.23,4.48,6.13.36,1.51,1.67,2.59,3.22,2.59h14.59c2.07,0,3.65-1.88,3.25-3.91-.65-3.32-1.76-6.18-3.32-8.58-2.15-3.3-4.85-5.95-8.09-7.94-3.25-1.99-6.94-3.4-11.08-4.24-4.14-.84-8.4-1.26-12.8-1.26s-8.7.39-12.88,1.18c-4.19.78-7.96,2.15-11.31,4.08-3.35,1.94-6.05,4.58-8.09,7.94-2.04,3.35-3.07,7.65-3.07,12.88,0,3.57.73,6.57,2.2,9.04,1.47,2.46,3.41,4.5,5.82,6.13,2.41,1.63,5.16,2.93,8.25,3.93,3.09,1,6.26,1.86,9.51,2.59,7.96,1.67,14.17,3.35,18.62,5.03,4.45,1.67,6.68,4.19,6.68,7.54,0,1.99-.47,3.64-1.41,4.95-.94,1.31-2.12,2.35-3.54,3.14-1.42.79-2.99,1.36-4.72,1.73-1.73.37-3.38.55-4.95.55-2.2,0-4.32-.26-6.36-.79-2.04-.52-3.85-1.33-5.42-2.43-1.57-1.1-2.85-2.51-3.85-4.24v.02c-.99-1.73-1.48-3.8-1.48-6.21h-21.21c.21,5.45,1.44,9.98,3.69,13.59,2.25,3.61,5.13,6.52,8.64,8.72,3.51,2.2,7.52,3.77,12.02,4.72,4.5.94,9.22,1.42,13.83,1.42s9.14-.45,13.59-1.34c4.45-.89,8.4-2.44,11.86-4.64,3.45-2.2,6.26-5.11,8.4-8.72,2.15-3.62,3.22-8.09,3.22-13.43,0-3.77-.74-6.94-2.2-9.51-1.47-2.57-3.4-4.71-5.81-6.44Z"/><path class="cls-1" d="m287.57,53.59h-10.15c-1.59,0-2.89-1.29-2.89-2.89v-10.25h0c0-1.72-.26-3.29-.79-4.69-.53-1.41-1.28-2.6-2.25-3.58-.97-.99-2.15-1.75-3.52-2.29-1.38-.54-2.91-.81-4.61-.81s-3.22.27-4.59.81c-1.36.54-2.53,1.31-3.5,2.29-.97.99-1.73,2.18-2.25,3.58-.53,1.41-.79,2.97-.79,4.69h0v62.93c0,23.74,15.53,32.68,38.65,32.68v-19.13h0s0-.04,0-.04c0,0-.03,0-.05,0l.05.04c-9.77,0-16.34-3.78-16.34-13.82v-23.41c0-1.86,1.51-3.37,3.37-3.37h9.67c1.82,0,3.3-1.48,3.3-3.31v-16.13c0-1.82-1.48-3.31-3.3-3.31Z"/><path class="cls-1" d="m239.02,51.8c-.73-.11-1.43-.16-2.09-.16-2.83,0-5.55.42-8.17,1.26-2.62.84-5.08,2.02-7.39,3.54-2.31,1.52-4.31,3.39-6.12,5.5-2.95,3.43-4.57,4.56-4.57,2.52,0-1.64-.25-3.12-.75-4.46-.5-1.33-1.22-2.47-2.14-3.41-.92-.94-2.04-1.66-3.35-2.18-1.31-.51-2.77-.77-4.38-.77s-3.07.26-4.36.77c-1.3.51-2.41,1.24-3.33,2.18-.92.94-1.64,2.07-2.14,3.41-.5,1.33-.75,2.82-.75,4.46h0v71.61h22.31v-36.61c0-3.66.37-7.07,1.1-10.21.73-3.14,1.97-5.89,3.69-8.25,1.73-2.36,4.01-4.22,6.83-5.58,2.83-1.36,6.29-2.04,10.37-2.04,1.36,0,2.77.08,4.24.24h.1c1.96.22,3.67-1.32,3.67-3.29v-15.26h0c0-1.63-1.17-3.03-2.78-3.27Z"/><path class="cls-1" d="m455.66,54.2h0s-15.7,0-15.7,0c-1.83,0-3.31,1.48-3.31,3.31v78.55h22.31V57.51c0-1.83-1.48-3.31-3.31-3.31Z"/><path class="cls-1" d="m458.96,33.38h0c0-1.72-.26-3.29-.79-4.69-.53-1.41-1.28-2.6-2.25-3.58-.97-.99-2.14-1.75-3.52-2.29-1.38-.54-2.92-.81-4.61-.81s-3.23.27-4.59.81c-1.36.54-2.53,1.31-3.5,2.29-.97.99-1.73,2.18-2.25,3.58-.53,1.41-.79,2.97-.79,4.69h0v8.39c0,1.83,1.48,3.31,3.31,3.31h15.7c1.82,0,3.3-1.48,3.3-3.31v-8.39h0,0Z"/><path class="cls-1" d="m418.9,33.38h0c0-1.72-.26-3.29-.79-4.69-.53-1.41-1.28-2.6-2.25-3.58-.97-.99-2.15-1.75-3.52-2.29s-2.91-.81-4.61-.81-3.23.27-4.59.81c-1.36.54-2.53,1.31-3.5,2.29-.97.99-1.73,2.18-2.25,3.58-.53,1.41-.79,2.97-.79,4.69h0v102.68h22.31V33.38h0,0Z"/></g></svg>